<svg xmlns="http://www.w3.org/2000/svg" xmlns:xlink="http://www.w3.org/1999/xlink" width="40" zoomAndPan="magnify" viewBox="0 0 30 30.000001" height="40" preserveAspectRatio="xMidYMid meet" version="1.0"><defs><clipPath id="id1"><path d="M 7.085938 2.910156 L 23.050781 2.910156 L 23.050781 26.125 L 7.085938 26.125 Z M 7.085938 2.910156 " clip-rule="nonzero"/></clipPath></defs><g clip-path="url(#id1)"><path fill="rgb(13.729858%, 9.408569%, 8.239746%)" d="M 21.601562 23.246094 C 21.601562 24.039062 20.949219 24.6875 20.148438 24.6875 L 9.988281 24.6875 C 9.1875 24.6875 8.535156 24.039062 8.535156 23.246094 L 8.535156 10.070312 L 11.144531 10.070312 C 12.746094 10.070312 14.046875 8.78125 14.046875 7.195312 L 14.046875 4.347656 L 20.148438 4.347656 C 20.949219 4.347656 21.601562 4.992188 21.601562 5.785156 Z M 12.59375 5.417969 L 12.59375 7.195312 C 12.59375 7.988281 11.945312 8.632812 11.144531 8.632812 L 9.492188 8.632812 Z M 20.148438 2.910156 L 13.007812 2.910156 L 7.085938 9.042969 L 7.085938 23.246094 C 7.085938 24.832031 8.386719 26.125 9.988281 26.125 L 20.148438 26.125 C 21.75 26.125 23.050781 24.832031 23.050781 23.246094 L 23.050781 5.785156 C 23.050781 4.199219 21.75 2.910156 20.148438 2.910156 " fill-opacity="1" fill-rule="nonzero"/></g><path fill="rgb(13.729858%, 9.408569%, 8.239746%)" d="M 19.234375 11.171875 L 11.441406 11.171875 C 11.039062 11.171875 10.714844 11.496094 10.714844 11.894531 C 10.714844 12.289062 11.039062 12.613281 11.441406 12.613281 L 19.234375 12.613281 C 19.636719 12.613281 19.960938 12.289062 19.960938 11.894531 C 19.960938 11.496094 19.636719 11.171875 19.234375 11.171875 " fill-opacity="1" fill-rule="nonzero"/><path fill="rgb(13.729858%, 9.408569%, 8.239746%)" d="M 19.128906 14.050781 L 11.335938 14.050781 C 10.933594 14.050781 10.609375 14.371094 10.609375 14.769531 C 10.609375 15.167969 10.933594 15.488281 11.335938 15.488281 L 19.128906 15.488281 C 19.53125 15.488281 19.855469 15.167969 19.855469 14.769531 C 19.855469 14.371094 19.53125 14.050781 19.128906 14.050781 " fill-opacity="1" fill-rule="nonzero"/><path fill="rgb(13.729858%, 9.408569%, 8.239746%)" d="M 19.027344 16.925781 L 11.230469 16.925781 C 10.828125 16.925781 10.503906 17.25 10.503906 17.644531 C 10.503906 18.042969 10.828125 18.363281 11.230469 18.363281 L 19.027344 18.363281 C 19.425781 18.363281 19.75 18.042969 19.75 17.644531 C 19.75 17.25 19.425781 16.925781 19.027344 16.925781 " fill-opacity="1" fill-rule="nonzero"/><path fill="rgb(13.729858%, 9.408569%, 8.239746%)" d="M 18.921875 19.804688 L 11.125 19.804688 C 10.726562 19.804688 10.398438 20.125 10.398438 20.523438 C 10.398438 20.917969 10.726562 21.242188 11.125 21.242188 L 18.921875 21.242188 C 19.320312 21.242188 19.648438 20.917969 19.648438 20.523438 C 19.648438 20.125 19.320312 19.804688 18.921875 19.804688 " fill-opacity="1" fill-rule="nonzero"/></svg>
